<mxfile host="app.diagrams.net" modified="2024-01-24T19:11:12.722Z" agent="Mozilla/5.0 (Windows NT 10.0; Win64; x64) AppleWebKit/537.36 (KHTML, like Gecko) Chrome/120.0.0.0 Safari/537.36 Edg/120.0.0.0" version="22.1.21" etag="ihPdDN-j_6URCgClIZ0I" type="github">
  <diagram name="Page-1" id="0nvNu8O6V7MX9JxMdo4K">
    <mxGraphModel>
      <root>
        <mxCell id="0" />
        <mxCell id="1" parent="0" />
      </root>
    </mxGraphModel>
  </diagram>
</mxfile>
